<svg width="30" height="30" viewBox="0 0 30 30" fill="none" xmlns="http://www.w3.org/2000/svg">
<path d="M30 15C30 6.70967 23.2912 0 15 0C6.70967 0 0 6.70876 0 15C0 23.2169 6.65268 30 15 30C23.313 30 30 23.2546 30 15ZM15 1.75781C22.3018 1.75781 28.2422 7.69821 28.2422 15C28.2422 17.6711 27.4477 20.2384 25.9744 22.413C20.0583 16.0492 9.95247 16.0378 4.02557 22.413C2.55226 20.2384 1.75781 17.6711 1.75781 15C1.75781 7.69821 7.69821 1.75781 15 1.75781ZM5.12192 23.8184C10.3821 17.9182 19.6193 17.9196 24.8779 23.8184C19.6001 29.7231 10.402 29.7249 5.12192 23.8184Z" fill="white"/>
<path d="M15 15.8789C17.9077 15.8789 20.2734 13.5132 20.2734 10.6055V8.84766C20.2734 5.93994 17.9077 3.57422 15 3.57422C12.0923 3.57422 9.72656 5.93994 9.72656 8.84766V10.6055C9.72656 13.5132 12.0923 15.8789 15 15.8789ZM11.4844 8.84766C11.4844 6.90903 13.0614 5.33203 15 5.33203C16.9386 5.33203 18.5156 6.90903 18.5156 8.84766V10.6055C18.5156 12.5441 16.9386 14.1211 15 14.1211C13.0614 14.1211 11.4844 12.5441 11.4844 10.6055V8.84766Z" fill="white"/>
</svg>
