<svg width="13" height="14" viewBox="0 0 13 14" fill="none" xmlns="http://www.w3.org/2000/svg">
<path d="M9.99994 11.8462C9.99994 12.1436 10.0979 12.3973 10.293 12.6075C10.4882 12.8179 10.724 12.9231 11.0002 12.9231C11.2761 12.9231 11.5119 12.8179 11.707 12.6075C11.9024 12.3973 12.0001 12.1436 12.0001 11.8462C12.0001 11.5488 11.9025 11.2951 11.707 11.0847C11.5119 10.8745 11.2761 10.7693 11.0002 10.7693C10.724 10.7693 10.4882 10.8745 10.293 11.0847C10.0979 11.2951 9.99994 11.5488 9.99994 11.8462Z" fill="#1C1C1C"/>
<path d="M12.8515 2.31361C12.7525 2.20702 12.6354 2.15371 12.5 2.15371H3.1172C3.11192 2.11449 3.10021 2.04303 3.08199 1.93927C3.06376 1.83545 3.04948 1.75276 3.03905 1.691C3.02857 1.6295 3.00915 1.55512 2.98044 1.46819C2.95179 1.3812 2.91794 1.31242 2.8789 1.26205C2.8399 1.21143 2.78783 1.16808 2.7227 1.13151C2.65763 1.09517 2.58337 1.0769 2.50007 1.0769H0.500097C0.364592 1.0769 0.247422 1.1303 0.148475 1.23674C0.0495007 1.3433 0 1.46957 0 1.61538C0 1.76119 0.0495007 1.8874 0.148475 1.99396C0.247504 2.10055 0.364702 2.1538 0.500097 2.1538H2.09367L3.47641 9.07817C3.46606 9.10056 3.41268 9.20703 3.31627 9.39784C3.21993 9.58865 3.14312 9.75544 3.08587 9.89845C3.0286 10.0416 2.99995 10.1523 2.99995 10.2308C2.99995 10.3766 3.04945 10.5029 3.14837 10.6096C3.24746 10.7159 3.3646 10.7694 3.50002 10.7694H4.00001H11H11.4997C11.6351 10.7694 11.7523 10.7159 11.8512 10.6096C11.9503 10.5029 11.9998 10.3767 11.9998 10.2308C11.9998 10.085 11.9503 9.95874 11.8512 9.85224C11.7524 9.74574 11.6351 9.69229 11.4997 9.69229H4.31239C4.43744 9.42301 4.49994 9.24372 4.49994 9.15396C4.49994 9.0977 4.49343 9.03597 4.48038 8.96881C4.46732 8.90165 4.45173 8.82721 4.4335 8.74576C4.41525 8.66467 4.40359 8.60434 4.39839 8.56503L12.5548 7.53862C12.6849 7.52167 12.7918 7.46159 12.8751 7.35768C12.9584 7.25401 13 7.13484 13 7.00014V2.69236C12.9999 2.54655 12.9506 2.42034 12.8515 2.31361Z" fill="#1C1C1C"/>
<path d="M2.99994 11.8462C2.99994 12.1436 3.09754 12.3973 3.29289 12.6075C3.4883 12.8179 3.72387 12.9231 4 12.9231C4.27596 12.9231 4.51167 12.8179 4.70693 12.6075C4.90228 12.3973 5 12.1436 5 11.8462C5 11.5488 4.90237 11.2951 4.70693 11.0847C4.51164 10.8745 4.27596 10.7693 4 10.7693C3.7239 10.7693 3.48819 10.8745 3.29289 11.0847C3.09765 11.2951 2.99994 11.5488 2.99994 11.8462Z" fill="#1C1C1C"/>
</svg>
