<svg width="30" height="30" viewBox="0 0 30 30" fill="none" xmlns="http://www.w3.org/2000/svg">
<g clip-path="url(#clip0)">
<path d="M30 11.25H24.9058L19.5539 2.33002C19.2884 1.88692 18.7125 1.74225 18.2676 2.00868C17.8235 2.2751 17.6798 2.85094 17.9462 3.29498L22.7192 11.25H7.28084L12.0538 3.29492C12.3203 2.85087 12.1765 2.27504 11.7325 2.00861C11.2866 1.74219 10.7126 1.88686 10.4462 2.32995L5.09427 11.2499H0V13.1249H2.03477L4.4165 25.8297C4.6655 27.16 5.82822 28.125 7.18143 28.125H22.8186C24.1718 28.125 25.3345 27.16 25.5826 25.8307L27.9652 13.1249H30.0001C30 13.1249 30 11.25 30 11.25ZM23.7396 25.4855C23.6572 25.9286 23.2699 26.25 22.8186 26.25H7.18143C6.73006 26.25 6.34283 25.9287 6.25951 25.4846L3.94184 13.1249H26.0582L23.7396 25.4855Z" fill="white"/>
</g>
<defs>
<clipPath id="clip0">
<rect width="30" height="30" fill="white"/>
</clipPath>
</defs>
</svg>
