<svg width="13" height="13" viewBox="0 0 13 13" fill="none" xmlns="http://www.w3.org/2000/svg">
<g clip-path="url(#clip0)">
<path d="M8.99551 7.7142C10.556 5.51062 10.0341 2.45932 7.83053 0.899179C5.62696 -0.660958 2.57565 -0.139421 1.01551 2.06453C-0.544625 4.26811 -0.0230878 7.31904 2.18086 8.87918C3.75367 9.99271 5.83311 10.0785 7.49204 9.09875L11.0966 12.6817C11.4858 13.0914 12.1333 13.1078 12.543 12.7186C12.9527 12.3297 12.9691 11.6822 12.5803 11.2725C12.568 11.2595 12.5561 11.2475 12.543 11.2352L8.99551 7.7142ZM5.00253 8.04822C3.26121 8.0486 1.84945 6.63795 1.84833 4.89663C1.84796 3.15532 3.25861 1.74355 5.00029 1.74281C6.73937 1.74206 8.15039 3.15047 8.15374 4.88955C8.15673 6.63124 6.74683 8.04524 5.00477 8.04822C5.00402 8.04822 5.00365 8.04822 5.00253 8.04822Z" fill="#1C1C1C"/>
</g>
<defs>
<clipPath id="clip0">
<rect width="13" height="13" fill="white"/>
</clipPath>
</defs>
</svg>
